<svg width="388" height="487" viewBox="0 0 388 487" fill="none" xmlns="http://www.w3.org/2000/svg">
<g clip-path="url(#clip0_1_27)">
<g style="mix-blend-mode:exclusion">
<path d="M388 0V388H0V0H388ZM16 372H372V16H16V372Z" fill="#DAFF02"/>
<path d="M94.4434 262.34H63.2218V293.562H94.4434V262.34Z" fill="#DAFF02"/>
<path d="M125.637 262.34H94.4155V293.562H125.637V262.34Z" fill="#DAFF02"/>
<path d="M156.837 262.34H125.615V293.562H156.837V262.34Z" fill="#DAFF02"/>
<path d="M125.637 293.557H94.4155V324.779H125.637V293.557Z" fill="#DAFF02"/>
<path d="M63.2216 293.557H32V324.779H63.2216V293.557Z" fill="#DAFF02"/>
<path d="M63.2216 324.779H32V356H63.2216V324.779Z" fill="#DAFF02"/>
<path d="M188.053 293.557H156.832V324.779H188.053V293.557Z" fill="#DAFF02"/>
<path d="M188.053 324.779H156.832V356H188.053V324.779Z" fill="#DAFF02"/>
</g>
</g>
<path d="M176.148 446V440.773L194.148 418.205V417.909H176.739V411.091H204.216V416.705L187.08 438.886V439.182H204.807V446H176.148Z" fill="#DAFF02"/>
<path d="M149.244 446.614C146.502 446.614 144.047 445.909 141.881 444.5C139.714 443.091 138.002 441.045 136.744 438.364C135.487 435.682 134.858 432.424 134.858 428.591C134.858 424.712 135.494 421.439 136.767 418.773C138.055 416.091 139.79 414.068 141.972 412.705C144.153 411.326 146.585 410.636 149.267 410.636C151.312 410.636 152.994 410.985 154.312 411.682C155.631 412.364 156.676 413.189 157.449 414.159C158.222 415.114 158.82 416.015 159.244 416.864H159.585V399.455H167.835V446H159.744V440.5H159.244C158.82 441.348 158.206 442.25 157.403 443.205C156.6 444.144 155.54 444.947 154.222 445.614C152.903 446.28 151.244 446.614 149.244 446.614ZM151.54 439.864C153.282 439.864 154.767 439.394 155.994 438.455C157.222 437.5 158.153 436.174 158.79 434.477C159.426 432.78 159.744 430.803 159.744 428.545C159.744 426.288 159.426 424.326 158.79 422.659C158.169 420.992 157.244 419.697 156.017 418.773C154.805 417.848 153.313 417.386 151.54 417.386C149.706 417.386 148.176 417.864 146.949 418.818C145.722 419.773 144.797 421.091 144.176 422.773C143.555 424.455 143.244 426.379 143.244 428.545C143.244 430.727 143.555 432.674 144.176 434.386C144.812 436.083 145.744 437.424 146.972 438.409C148.214 439.379 149.737 439.864 151.54 439.864Z" fill="#DAFF02"/>
<path d="M105.517 425.545V446H97.2898V411.091H105.153V417.023H105.562C106.366 415.068 107.646 413.515 109.403 412.364C111.176 411.212 113.366 410.636 115.972 410.636C118.381 410.636 120.479 411.152 122.267 412.182C124.07 413.212 125.464 414.705 126.449 416.659C127.449 418.614 127.941 420.985 127.926 423.773V446H119.699V425.045C119.699 422.712 119.093 420.886 117.881 419.568C116.684 418.25 115.025 417.591 112.903 417.591C111.464 417.591 110.184 417.909 109.062 418.545C107.956 419.167 107.085 420.068 106.449 421.25C105.828 422.432 105.517 423.864 105.517 425.545Z" fill="#DAFF02"/>
<path d="M65.5284 459.091C64.4072 459.091 63.3693 459 62.4148 458.818C61.4754 458.652 60.7254 458.455 60.1648 458.227L62.0739 451.818C63.2708 452.167 64.339 452.333 65.2784 452.318C66.2178 452.303 67.0436 452.008 67.7557 451.432C68.483 450.871 69.0966 449.932 69.5966 448.614L70.3011 446.727L57.642 411.091H66.3693L74.4148 437.455H74.7784L82.8466 411.091H91.5966L77.6193 450.227C76.9678 452.076 76.1042 453.659 75.0284 454.977C73.9527 456.311 72.6345 457.326 71.0739 458.023C69.5284 458.735 67.6799 459.091 65.5284 459.091Z" fill="#DAFF02"/>
<path d="M4.22727 446V411.091H12.0909V417.023H12.5C13.2273 415.023 14.4318 413.462 16.1136 412.341C17.7955 411.205 19.803 410.636 22.1364 410.636C24.5 410.636 26.4924 411.212 28.1136 412.364C29.75 413.5 30.9015 415.053 31.5682 417.023H31.9318C32.7045 415.083 34.0076 413.538 35.8409 412.386C37.6894 411.22 39.8788 410.636 42.4091 410.636C45.6212 410.636 48.2424 411.652 50.2727 413.682C52.303 415.712 53.3182 418.674 53.3182 422.568V446H45.0682V423.841C45.0682 421.674 44.4924 420.091 43.3409 419.091C42.1894 418.076 40.7803 417.568 39.1136 417.568C37.1288 417.568 35.5758 418.189 34.4545 419.432C33.3485 420.659 32.7955 422.258 32.7955 424.227V446H24.7273V423.5C24.7273 421.697 24.1818 420.258 23.0909 419.182C22.0152 418.106 20.6061 417.568 18.8636 417.568C17.6818 417.568 16.6061 417.871 15.6364 418.477C14.6667 419.068 13.8939 419.909 13.3182 421C12.7424 422.076 12.4545 423.333 12.4545 424.773V446H4.22727Z" fill="#DAFF02"/>
<defs>
<clipPath id="clip0_1_27">
<rect width="388" height="388" fill="white"/>
</clipPath>
</defs>
</svg>
